<?xml version="1.0" encoding="UTF-8" standalone="no"?>
<!-- Created with Inkscape (http://www.inkscape.org/) -->

<svg
   xmlns:dc="http://purl.org/dc/elements/1.1/"
   xmlns:cc="http://creativecommons.org/ns#"
   xmlns:rdf="http://www.w3.org/1999/02/22-rdf-syntax-ns#"
   xmlns:svg="http://www.w3.org/2000/svg"
   xmlns="http://www.w3.org/2000/svg"
   xmlns:sodipodi="http://sodipodi.sourceforge.net/DTD/sodipodi-0.dtd"
   xmlns:inkscape="http://www.inkscape.org/namespaces/inkscape"
   id="svg2"
   version="1.1"
   inkscape:version="0.48.4 r9939"
   width="270"
   height="188.75"
   xml:space="preserve"
   sodipodi:docname="xxxx_xx.eps"><metadata
     id="metadata8"><rdf:RDF><cc:Work
         rdf:about=""><dc:format>image/svg+xml</dc:format><dc:type
           rdf:resource="http://purl.org/dc/dcmitype/StillImage" /><dc:title></dc:title></cc:Work></rdf:RDF></metadata><defs
     id="defs6"><clipPath
       clipPathUnits="userSpaceOnUse"
       id="clipPath3084"><path
         inkscape:connector-curvature="0"
         d="m 2670.39,4197.5 212.473,0 0,154.508 -212.473,0 0,-154.508 z"
         clip-rule="evenodd"
         id="path3086" /></clipPath><clipPath
       clipPathUnits="userSpaceOnUse"
       id="clipPath3149"><path
         inkscape:connector-curvature="0"
         d="m 2670.39,4034.2 238.82,0 0,317.805 -238.82,0 0,-317.805 z"
         clip-rule="evenodd"
         id="path3151" /></clipPath><clipPath
       clipPathUnits="userSpaceOnUse"
       id="clipPath3167"><path
         inkscape:connector-curvature="0"
         d="m 2107.19,4033.92 343.641,0 0,317.52 -343.641,0 0,-317.52 z"
         clip-rule="evenodd"
         id="path3169" /></clipPath><clipPath
       clipPathUnits="userSpaceOnUse"
       id="clipPath3324"><path
         inkscape:connector-curvature="0"
         d="m 2107.19,4033.92 343.641,0 0,317.52 -343.641,0 0,-317.52 z"
         clip-rule="evenodd"
         id="path3326" /></clipPath><clipPath
       clipPathUnits="userSpaceOnUse"
       id="clipPath3404"><path
         inkscape:connector-curvature="0"
         d="m 2107.19,4033.92 238.82,0 0,317.52 -238.82,0 0,-317.52 z"
         clip-rule="evenodd"
         id="path3406" /></clipPath></defs><sodipodi:namedview
     pagecolor="#ffffff"
     bordercolor="#666666"
     borderopacity="1"
     objecttolerance="10"
     gridtolerance="10"
     guidetolerance="10"
     inkscape:pageopacity="0"
     inkscape:pageshadow="2"
     inkscape:window-width="946"
     inkscape:window-height="828"
     id="namedview4"
     showgrid="false"
     inkscape:zoom="1.2503311"
     inkscape:cx="135"
     inkscape:cy="94.375"
     inkscape:window-x="578"
     inkscape:window-y="149"
     inkscape:window-maximized="0"
     inkscape:current-layer="g10" /><g
     id="g10"
     inkscape:groupmode="layer"
     inkscape:label="ink_ext_XXXXXX"
     transform="matrix(1.25,0,0,-1.25,0,188.75)"><g
       id="g12"
       transform="scale(0.1,0.1)"><path
         d="m 1065,167 -31.5,0"
         style="fill:none;stroke:#000000;stroke-opacity:1;stroke-width:5;stroke-linecap:butt;stroke-linejoin:miter;stroke-miterlimit:3.8;stroke-dasharray:none"
         id="path14" /><g
         id="g16"
         transform="scale(10,10)"><text
           transform="matrix(1,0,0,-1,91.6105,13.3648)"
           id="text18"><tspan
             style="fill:#000000;fill-opacity:1;fill-rule:nonzero;stroke:none;font-family:Helvetica;font-variant:normal;font-weight:normal;font-size:10;writing-mode:lr;-inkscape-font-specification:Helvetica"
             x="0 3.33"
             y="0"
             sodipodi:role="line"
             id="tspan20">-1</tspan></text>
</g><path
         d="m 1065,1109 -31.5,0"
         style="fill:none;stroke:#000000;stroke-opacity:1;stroke-width:5;stroke-linecap:butt;stroke-linejoin:miter;stroke-miterlimit:3.8;stroke-dasharray:none"
         id="path22" /><g
         id="g24"
         transform="scale(10,10)"><text
           transform="matrix(1,0,0,-1,94.9402,107.565)"
           id="text26"><tspan
             style="fill:#000000;fill-opacity:1;fill-rule:nonzero;stroke:none;font-family:Helvetica;font-variant:normal;font-weight:normal;font-size:10;writing-mode:lr;-inkscape-font-specification:Helvetica"
             x="0"
             y="0"
             id="tspan28">1</tspan></text>
</g><path
         d="m 455,638 0,-31.5"
         style="fill:none;stroke:#000000;stroke-opacity:1;stroke-width:5;stroke-linecap:butt;stroke-linejoin:miter;stroke-miterlimit:3.8;stroke-dasharray:none"
         id="path30" /><g
         id="g32"
         transform="scale(10,10)"><text
           transform="matrix(1,0,0,-1,41.0555,47.3148)"
           id="text34"><tspan
             style="fill:#000000;fill-opacity:1;fill-rule:nonzero;stroke:none;font-family:Helvetica;font-variant:normal;font-weight:normal;font-size:10;writing-mode:lr;-inkscape-font-specification:Helvetica"
             x="0 3.33"
             y="0"
             sodipodi:role="line"
             id="tspan36">-1</tspan></text>
</g><path
         d="m 1674.5,638 0,-31.5"
         style="fill:none;stroke:#000000;stroke-opacity:1;stroke-width:5;stroke-linecap:butt;stroke-linejoin:miter;stroke-miterlimit:3.8;stroke-dasharray:none"
         id="path38" /><g
         id="g40"
         transform="scale(10,10)"><text
           transform="matrix(1,0,0,-1,164.67,47.3148)"
           id="text42"><tspan
             style="fill:#000000;fill-opacity:1;fill-rule:nonzero;stroke:none;font-family:Helvetica;font-variant:normal;font-weight:normal;font-size:10;writing-mode:lr;-inkscape-font-specification:Helvetica"
             x="0"
             y="0"
             id="tspan44">1</tspan></text>
</g><path
         d="m 150,638 1829.5,0 M 1065,120 l 0,1271.5"
         style="fill:none;stroke:#000000;stroke-opacity:1;stroke-width:5;stroke-linecap:butt;stroke-linejoin:miter;stroke-miterlimit:3.8;stroke-dasharray:none"
         id="path46" /><g
         id="g48"
         transform="scale(10,10)"><text
           transform="matrix(1,0,0,-1,97.35,53.4148)"
           id="text50"><tspan
             style="fill:#000000;fill-opacity:1;fill-rule:nonzero;stroke:none;font-family:Helvetica;font-variant:normal;font-weight:normal;font-size:10;writing-mode:lr;-inkscape-font-specification:Helvetica"
             x="0"
             y="0"
             id="tspan52">O</tspan><tspan
             style="fill:#000000;fill-opacity:1;fill-rule:nonzero;stroke:none;font-family:Helvetica;font-variant:normal;font-weight:normal;font-size:10;writing-mode:lr;-inkscape-font-specification:Helvetica"
             x="-9.15 -5.82 -0.26 2.52"
             y="9.45"
             sodipodi:role="line"
             id="tspan54">-1/4</tspan></text>
<text
           transform="matrix(1,0,0,-1,191.85,50.39996)"
           id="text56"><tspan
             style="fill:#000000;fill-opacity:1;fill-rule:nonzero;stroke:none;font-family:Times New Roman;font-style:italic;font-variant:normal;font-size:12;writing-mode:lr;-inkscape-font-specification:Times-Italic"
             x="0"
             y="0"
             id="tspan58">x</tspan><tspan
             style="fill:#000000;fill-opacity:1;fill-rule:nonzero;stroke:none;font-family:Times New Roman;font-style:italic;font-variant:normal;font-size:12;writing-mode:lr;-inkscape-font-specification:Times-Italic"
             x="-97.55"
             y="-84.75"
             id="tspan60">y</tspan></text>
</g><path
         d="m 1980,622 60.5,16 -60.5,16 m -915,-16 975.5,0"
         style="fill:none;stroke:#000000;stroke-opacity:1;stroke-width:5;stroke-linecap:butt;stroke-linejoin:miter;stroke-miterlimit:3.8;stroke-dasharray:none"
         id="path62" /><path
         d="m 1980,622 60.5,16 -60.5,16"
         style="fill:none;stroke:#000000;stroke-opacity:1;stroke-width:5;stroke-linecap:butt;stroke-linejoin:miter;stroke-miterlimit:3.8;stroke-dasharray:none"
         id="path64" /><path
         d="m 1081,1331 -16,60.5 -16,-60.5 m 16,-693 0,753.5"
         style="fill:none;stroke:#000000;stroke-opacity:1;stroke-width:5;stroke-linecap:butt;stroke-linejoin:miter;stroke-miterlimit:3.8;stroke-dasharray:none"
         id="path66" /><path
         d="m 1081,1331 -16,60.5 -16,-60.5"
         style="fill:none;stroke:#000000;stroke-opacity:1;stroke-width:5;stroke-linecap:butt;stroke-linejoin:miter;stroke-miterlimit:3.8;stroke-dasharray:none"
         id="path68" /><path
         d="m 1496,638 0,-117.5 M 633.5,638 l 0,-117.5 862.5,0"
         style="fill:none;stroke:#000000;stroke-opacity:1;stroke-width:3.75;stroke-linecap:butt;stroke-linejoin:miter;stroke-miterlimit:3.8;stroke-dasharray:20,10;stroke-dashoffset:0"
         id="path70" /><path
         d="m 233,1391.5 9.5,-52.5 18.5,-97.5 18.5,-89 L 298,1071 316.5,997 335,930 353.5,869.5 372,815 390,766.5 408.5,723.5 427,686 445.5,653 464,624.5 482.5,600 501,579.5 l 18.5,-17 18.5,-13.5 18.5,-11 18.5,-8 18.5,-5.5 18.5,-3 18.5,-1 18.5,0.5 18.5,2 18.5,3.5 18.5,4.5 18.5,5.5 18.5,6.5 18.5,6.5 18.5,7.5 18.5,7.5 18.5,8 18.5,7.5 18,8 18.5,7 18.5,7 18.5,7 18.5,6 18.5,5.5 18.5,5 18.5,4 18.5,3.5 18.5,2.5 18.5,1.5 18.5,1 18.5,0 18.5,-1 18.5,-1.5 18.5,-2.5 18.5,-3.5 18.5,-4 18.5,-5 18.5,-5.5 18.5,-6 18.5,-7 18.5,-7 18.5,-7 18,-8 18.5,-7.5 18.5,-8 18.5,-7.5 18.5,-7.5 18.5,-6.5 18.5,-6.5 18.5,-5.5 18.5,-4.5 18.5,-3.5 18.5,-2 18.5,-0.5 18.5,1 18.5,3 18.5,5.5 18.5,8 18.5,11 18.5,13.5 18.5,17 18.5,20.5 18.5,24.5 18.5,28.5 18.5,33 18.5,37.5 18.5,43 18,48.5 18.5,54.5 18.5,60.5 18.5,67 18.5,74 18.5,81.5 18.5,89 18.5,97.5 9.5,52.5"
         style="fill:none;stroke:#000000;stroke-opacity:1;stroke-width:7.5;stroke-linecap:butt;stroke-linejoin:miter;stroke-miterlimit:3.8;stroke-dasharray:none"
         id="path72" /></g><g
       id="g3318"
       transform="matrix(0.07509941,0,0,0.07158203,-109.04371,-220.53072)"><g
         id="g3320"><g
           id="g3322"
           clip-path="url(#clipPath3324)"><path
             inkscape:connector-curvature="0"
             d="m 2154.21,4192.68 74.2227,0 0,6.2383 -74.2227,0 0,-6.2383 z"
             style="fill:#010101;fill-opacity:1;fill-rule:evenodd;stroke:none"
             id="path3328" /><path
             inkscape:connector-curvature="0"
             d="m 2337.23,4244.28 17.28,-1.7 0,-3.4 -45.33,0 0,3.4 17.28,1.7 0,68.61 -17,-5.96 0,3.41 24.36,13.89 3.41,0 0,-79.95"
             style="fill:#010101;fill-opacity:1;fill-rule:evenodd;stroke:none"
             id="path3330" /><path
             inkscape:connector-curvature="0"
             d="m 2247.98,4192.68 163.184,0 0,5.957 -163.184,0 0,-5.957 z"
             style="fill:#010101;fill-opacity:1;fill-rule:evenodd;stroke:none"
             id="path3332" /><path
             inkscape:connector-curvature="0"
             d="m 2293.03,4054.05 -21.82,52.16 -9.06,-6.8 -1.7,3.12 15.3,11.06 19.83,-48.2 29.18,117.09 3.4,0 -32.3,-128.43 -2.83,0"
             style="fill:#010101;fill-opacity:1;fill-rule:evenodd;stroke:none"
             id="path3334" /><path
             inkscape:connector-curvature="0"
             d="m 2330.71,4178.22 74.2227,0 0,4.2539 -74.2227,0 0,-4.2539 z"
             style="fill:#010101;fill-opacity:1;fill-rule:evenodd;stroke:none"
             id="path3336" /><path
             inkscape:connector-curvature="0"
             d="m 2396.43,4061.99 -51.55,0 0,9.35 c 4.25,3.97 8.21,7.37 11.61,10.49 3.68,3.12 6.8,5.96 9.63,8.79 2.83,2.55 5.1,5.1 7.37,7.66 1.98,2.55 3.96,5.1 5.38,7.65 1.42,2.84 2.27,5.67 3.12,8.79 0.56,3.12 0.85,6.52 0.85,10.49 0,5.38 -1.14,9.64 -3.69,12.47 -2.54,2.84 -6.51,4.25 -12.18,4.25 -1.13,0 -2.26,0 -3.68,-0.28 -1.13,-0.28 -2.27,-0.56 -3.4,-0.85 -1.14,-0.28 -2.27,-0.57 -3.12,-0.85 -1.13,-0.57 -1.98,-0.85 -2.83,-1.42 l -1.98,-10.2 -4.25,0 0,16.16 c 3.11,0.85 6.23,1.41 9.34,1.98 3.12,0.57 6.52,0.85 9.92,0.85 9.35,0 16.15,-1.98 20.97,-5.95 4.53,-3.69 6.79,-9.07 6.79,-16.16 0,-3.41 -0.28,-6.52 -1.41,-9.64 -0.85,-2.84 -1.98,-5.67 -3.68,-8.22 -1.7,-2.84 -3.69,-5.39 -6.24,-8.22 -2.55,-2.56 -5.1,-5.11 -8.21,-7.94 -3.12,-2.84 -6.52,-5.96 -10.2,-9.07 -3.69,-3.12 -7.65,-6.52 -11.9,-10.49 l 43.34,0 0,-9.64"
             style="fill:#010101;fill-opacity:1;fill-rule:evenodd;stroke:none"
             id="path3338" /></g></g></g><g
       id="g3398"
       transform="matrix(0.08039495,0,0,0.07631836,-32.108036,-241.64899)"><g
         id="g3400"><g
           id="g3402"
           clip-path="url(#clipPath3404)"><path
             inkscape:connector-curvature="0"
             d="m 2229.29,4244.28 17.28,-1.7 0,-3.4 -45.33,0 0,3.4 17.28,1.7 0,68.61 -17,-5.96 0,3.41 24.37,13.89 3.4,0 0,-79.95"
             style="fill:#010101;fill-opacity:1;fill-rule:evenodd;stroke:none"
             id="path3408" /><path
             inkscape:connector-curvature="0"
             d="m 2148.27,4192.68 163.18,0 0,5.957 -163.18,0 0,-5.957 z"
             style="fill:#010101;fill-opacity:1;fill-rule:evenodd;stroke:none"
             id="path3410" /><path
             inkscape:connector-curvature="0"
             d="m 2193.59,4054.05 -21.81,52.16 -9.07,-6.8 -1.7,3.12 15.3,11.06 19.83,-48.2 29.18,117.09 3.4,0 -32.29,-128.43 -2.84,0"
             style="fill:#010101;fill-opacity:1;fill-rule:evenodd;stroke:none"
             id="path3412" /><path
             inkscape:connector-curvature="0"
             d="m 2223.05,4178.22 73.9414,0 0,4.2539 -73.9414,0 0,-4.2539 z"
             style="fill:#010101;fill-opacity:1;fill-rule:evenodd;stroke:none"
             id="path3414" /><path
             inkscape:connector-curvature="0"
             d="m 2288.5,4061.99 -51.56,0 0,9.35 c 4.25,3.97 8.21,7.37 11.61,10.49 3.68,3.12 6.8,5.96 9.63,8.79 2.84,2.55 5.11,5.1 7.37,7.66 1.99,2.55 3.97,5.1 5.38,7.65 1.42,2.84 2.27,5.67 3.12,8.79 0.57,3.12 0.85,6.52 0.85,10.49 0,5.38 -1.13,9.64 -3.69,12.47 -2.54,2.84 -6.51,4.25 -12.17,4.25 -1.14,0 -2.27,0 -3.69,-0.28 -1.13,-0.28 -2.26,-0.56 -3.4,-0.85 -1.13,-0.28 -2.26,-0.57 -3.11,-0.85 -1.14,-0.57 -1.99,-0.85 -2.84,-1.42 l -1.98,-10.2 -4.25,0 0,16.16 c 3.12,0.85 6.23,1.41 9.35,1.98 3.11,0.57 6.52,0.85 9.92,0.85 9.34,0 16.14,-1.98 20.96,-5.95 4.53,-3.69 6.8,-9.07 6.8,-16.16 0,-3.41 -0.28,-6.52 -1.42,-9.64 -0.85,-2.84 -1.98,-5.67 -3.68,-8.22 -1.7,-2.84 -3.68,-5.39 -6.24,-8.22 -2.54,-2.56 -5.09,-5.11 -8.21,-7.94 -3.12,-2.84 -6.52,-5.96 -10.2,-9.07 -3.68,-3.12 -7.65,-6.52 -11.9,-10.49 l 43.35,0 0,-9.64"
             style="fill:#010101;fill-opacity:1;fill-rule:evenodd;stroke:none"
             id="path3416" /></g></g></g></g></svg>